<svg width="236.140625" height="32.046875" viewBox="0 0 236.141 32.0469" fill="none" xmlns="http://www.w3.org/2000/svg" xmlns:xlink="http://www.w3.org/1999/xlink">
	<desc>
			Created with Pixso.
	</desc>
	<defs>
		<filter id="filter_101_207_dd" x="0.000000" y="0.000000" width="236.140625" height="32.046875" filterUnits="userSpaceOnUse" color-interpolation-filters="sRGB">
			<feFlood flood-opacity="0" result="BackgroundImageFix"/>
			<feColorMatrix in="SourceAlpha" type="matrix" values="0 0 0 0 0 0 0 0 0 0 0 0 0 0 0 0 0 0 127 0" result="hardAlpha"/>
			<feOffset dx="0" dy="4"/>
			<feGaussianBlur stdDeviation="1.33333"/>
			<feComposite in2="hardAlpha" operator="out" k2="-1" k3="1"/>
			<feColorMatrix type="matrix" values="0 0 0 0 0 0 0 0 0 0 0 0 0 0 0 0 0 0 0.25 0"/>
			<feBlend mode="normal" in2="BackgroundImageFix" result="effect_dropShadow_1"/>
			<feBlend mode="normal" in="SourceGraphic" in2="effect_dropShadow_1" result="shape"/>
		</filter>
	</defs>
	<g filter="url(#filter_101_207_dd)">
		<path id="Foodieland." d="M14.8926 13.7285C14.0312 15.3105 11.916 16.1777 10.4512 16.1777C8.82227 16.1777 8.17188 15.0938 8.17188 13.752C8.17188 11.543 9.90039 8.58984 12.4727 8.01562C10.7441 7.55859 10.0469 6.19336 10.0469 4.79883C10.0469 3.11719 11.0781 1.41211 12.4961 1.41211C13.1406 1.41211 13.8145 1.77539 13.8145 2.75977C13.8145 3.57422 13.3574 4.65234 12.7598 4.8457C13.0938 5.30273 13.4805 5.49609 13.8848 5.49609C14.8457 5.49609 15.6602 4.44141 15.6602 3C15.6602 1.03125 14.125 0 12.2324 0C9.15625 0 6.97656 2.68945 6.97656 5.15625C6.97656 6.24023 7.4043 7.29492 8.43555 8.03906C5.67578 8.71289 4 11.7363 4 14.2559C4 16.5117 5.3418 18.4805 8.41211 18.4805C11.2715 18.4805 14.1953 16.7988 15.4434 13.9688L14.8926 13.7285ZM22.9086 5.56641C21.9008 5.56641 21.4203 6.11719 21.4203 6.86133C21.4203 7.38867 21.7074 8.08594 22.2875 8.08594C22.4808 8.08594 22.9847 8.01562 23.0551 7.8457C23.0551 10.4883 21.2562 15.8613 18.9008 15.8613C18.3265 15.8613 18.0863 15.5508 18.0863 15.0703C18.0863 14.8535 18.1332 14.543 18.2035 14.209L19.932 6.04688L16.4808 6.04688L14.7523 14.209C14.6527 14.6602 14.6293 15.0938 14.6293 15.3574C14.6293 17.2559 15.7601 18.1934 17.5824 18.1934C22.4808 18.1934 24.4203 11.4961 24.4203 7.65234C24.4203 6.59766 24.0629 5.56641 22.9086 5.56641ZM28.0223 14.1562C28.0223 13.8691 28.0457 13.5352 28.0692 13.2012C30.952 13.0312 33.5887 10.8926 33.5887 8.13281C33.5887 6.9375 33.0848 5.83008 30.952 5.83008C26.0301 5.83008 24.4715 11.6133 24.4715 14.373C24.4715 17.0859 25.9598 18.1934 28.2157 18.1934C31.4032 18.1934 33.4481 15.9609 34.8133 13.752L33.9989 13.752C32.7977 15.1172 31.6434 16.1777 29.7508 16.1777C28.5965 16.1777 28.0223 15.791 28.0223 14.1562ZM31.743 8.08594C31.743 10.0781 30.1082 11.9297 28.2625 12.0469C28.743 9.66797 29.9207 7.10156 31.1395 7.10156C31.5965 7.10156 31.743 7.48828 31.743 8.08594ZM40.9121 9.35742C40.9121 10.8926 39.8282 13.8457 39.8282 15.4805C39.8282 16.8457 40.5723 18.1934 42.6641 18.1934C43.9356 18.1934 45.7813 17.6895 47.1289 13.752L46.1153 13.752C45.5879 15 45.1602 15.8613 44.0996 15.8613C43.3848 15.8613 43.1446 15.457 43.1446 14.8535C43.1446 13.5117 44.293 10.6055 44.293 8.66016C44.293 6.74414 43.168 5.95312 41.6328 5.95312C40.8887 5.95312 39.8282 6.14062 38.8203 7.29492L39.084 6.04688L35.6328 6.04688L33.084 18.0469L36.541 18.0469L38.1758 10.3418C38.5332 9.14062 39.1836 8.13281 40.045 8.13281C40.6192 8.13281 40.9121 8.56641 40.9121 9.35742ZM51.1103 7.00781L52.5517 7.00781L52.7392 6.04688L51.3036 6.04688C51.7607 3.88477 52.1181 2.25586 52.1181 2.25586L48.5673 2.73633L47.8466 6.04688L47.0556 6.04688L46.8622 7.00781L47.6532 7.00781L46.1181 14.209C46.0243 14.6367 45.9716 15.0703 45.9716 15.4805C45.9716 17.0156 46.6923 18.1934 48.3739 18.1934C49.1884 18.1934 50.2489 17.9004 50.9169 15.8379C50.7235 15.9082 50.4599 15.9082 50.2958 15.9082C49.6454 15.9082 49.4521 15.5508 49.4521 15.0469C49.4521 14.7832 49.5048 14.4961 49.5751 14.209L51.1103 7.00781ZM59.5848 6.04688L57.9501 13.752C57.8329 14.3262 57.7567 14.8535 57.7567 15.3105C57.7567 17.3262 58.8876 18.1934 60.329 18.1934C61.2841 18.1934 62.5555 17.9004 63.7333 16.1777C64.0204 17.5195 65.0516 18.1934 66.6161 18.1934C71.5087 18.1934 73.454 11.4961 73.454 7.65234C73.454 6.59766 73.0966 5.56641 71.9423 5.56641C70.9344 5.56641 70.454 6.11719 70.454 6.86133C70.454 7.38867 70.7411 8.08594 71.3153 8.08594C71.5087 8.08594 72.0126 8.01562 72.0887 7.8457C72.0887 10.4883 70.2841 15.8613 67.9344 15.8613C67.3602 15.8613 67.12 15.5508 67.12 15.0703C67.12 14.8535 67.1669 14.543 67.2372 14.209L68.9657 6.04688L65.5087 6.04688L63.8798 13.752C63.5165 14.9531 62.8954 15.8613 61.9579 15.8613C61.4071 15.8613 61.2372 15.3574 61.2372 14.8066C61.2372 14.6133 61.2606 14.3965 61.3075 14.209L63.036 6.04688L59.5848 6.04688ZM77.0543 14.1562C77.0543 13.8691 77.0778 13.5352 77.1012 13.2012C79.984 13.0312 82.6207 10.8926 82.6207 8.13281C82.6207 6.9375 82.1168 5.83008 79.984 5.83008C75.0621 5.83008 73.5035 11.6133 73.5035 14.373C73.5035 17.0859 74.9918 18.1934 77.2477 18.1934C80.4352 18.1934 82.4801 15.9609 83.8453 13.752L83.0309 13.752C81.8297 15.1172 80.6754 16.1777 78.7828 16.1777C77.6285 16.1777 77.0543 15.791 77.0543 14.1562ZM80.775 8.08594C80.775 10.0781 79.1403 11.9297 77.2945 12.0469C77.775 9.66797 78.9528 7.10156 80.1715 7.10156C80.6285 7.10156 80.775 7.48828 80.775 8.08594ZM102.208 13.752C101.751 14.1094 101.147 14.5664 100.503 14.9297C100.55 14.6602 100.573 14.3496 100.573 14.0391C100.573 12.457 100.333 11.5195 100.046 5.30273L96.4949 5.7832C95.2 8.01562 93.952 9.38086 92.7742 9.57422C92.6512 6.9082 91.5496 5.97656 89.9676 5.97656C89.4871 5.97656 88.9832 6.04688 87.9988 6.64453L89.1473 1.24805L85.5965 1.72852L83.0301 13.752C82.9129 14.2559 82.8602 14.7129 82.8602 15.1172C82.8602 17.0391 84.0145 18.1934 86.2234 18.1934C90.9285 18.1934 92.5574 13.6816 92.7742 10.7754C94.1687 10.2949 95.4402 9.2168 96.5652 7.53516C96.8289 11.9766 97.0926 12.7207 97.0926 14.0625C97.0926 15.7441 96.6355 16.2949 95.5809 16.2949C94.6727 16.2949 94.1922 15.6211 94.1922 14.4961C94.3094 14.7363 94.5965 14.8066 94.8367 14.8066C95.4637 14.8066 95.991 14.3027 95.991 13.7285C95.991 13.0312 95.5574 12.7207 94.743 12.7207C93.8992 12.7207 93.0145 13.582 93.0145 15C93.0145 16.4648 93.4949 18.1934 96.3484 18.1934C97.6434 18.1934 99.0613 17.7598 99.8758 16.5586C100.913 15.9082 102.085 15.0469 103.216 13.752L102.208 13.752ZM89.9441 9.9375C89.9441 10.4121 90.0613 10.7285 90.325 10.8926C90.0848 13.248 88.9363 15.8613 87.5652 15.8613C86.7039 15.8613 86.2937 15.457 86.2937 14.7598C86.2937 14.5898 86.3172 14.3965 86.3641 14.209L87.6883 8.10938C87.952 7.79883 88.7664 7.68164 89.1004 7.68164C89.7039 7.68164 90.0848 8.23242 90.2547 8.95312C90.0613 9.19336 89.9441 9.50391 89.9441 9.9375ZM104.315 2.85352C104.315 3.9082 105.159 4.75195 106.214 4.75195C107.269 4.75195 108.136 3.9082 108.136 2.85352C108.136 1.79883 107.269 0.9375 106.214 0.9375C105.159 0.9375 104.315 1.79883 104.315 2.85352ZM103.841 6.04688L102.206 13.752C102.089 14.3262 102.013 14.8535 102.013 15.3105C102.013 17.3262 103.144 18.1934 104.585 18.1934C105.88 18.1934 108.253 17.6602 109.624 13.752L108.616 13.752C108.253 14.9531 107.392 15.8613 106.454 15.8613C105.78 15.8613 105.47 15.6445 105.47 14.9766C105.47 14.7598 105.493 14.5195 105.563 14.209L107.292 6.04688L103.841 6.04688ZM110.964 2.73633L110.249 6.04688L109.452 6.04688L109.264 7.00781L110.055 7.00781L108.614 13.752C108.497 14.3262 108.421 14.8535 108.421 15.3105C108.421 17.3262 109.552 18.1934 110.993 18.1934C112.288 18.1934 114.661 17.6602 116.032 13.752L115.024 13.752C114.661 14.9531 113.8 15.8613 112.862 15.8613C112.188 15.8613 111.878 15.6445 111.878 14.9766C111.878 14.7598 111.901 14.5195 111.971 14.209L113.513 7.00781L114.948 7.00781L115.141 6.04688L113.7 6.04688L114.52 2.25586L110.964 2.73633ZM118.239 13.916C118.239 13.7051 118.262 13.4414 118.286 13.2012C121.169 13.0312 123.805 10.916 123.805 8.13281C123.805 6.9375 123.301 5.83008 121.169 5.83008C116.247 5.83008 114.688 11.6133 114.688 14.373C114.688 17.0859 116.176 18.1934 118.409 18.1934C120.325 18.1934 122.053 17.373 122.557 14.6367C121.79 15.3105 120.635 15.9082 119.727 15.9082C118.883 15.9082 118.239 15.4336 118.239 13.916ZM121.96 8.08594C121.96 10.1016 120.325 11.9531 118.456 12.0469C118.96 9.76758 120.161 7.10156 121.356 7.10156C121.813 7.10156 121.96 7.48828 121.96 8.08594ZM138.688 0.09375C138.371 0.0703125 138.061 0.046875 137.727 0.046875C133.719 0.046875 129.301 3.09375 129.301 6.28711C129.301 8.01562 130.215 8.61328 131.868 8.61328C131.844 8.39648 131.534 8.20898 131.534 6.98438C131.534 4.44141 132.782 2.61328 134.897 1.72852L131.416 18.0469L134.868 18.0469L136.789 9.02344L140.317 9.02344L138.401 18.0469L141.852 18.0469L145.672 0.09375L142.215 0.09375L140.68 7.24805L137.153 7.24805L138.688 0.09375ZM151.214 5.83008C146.269 5.83008 144.64 11.5898 144.64 14.3496C144.64 17.0859 146.246 18.1406 148.478 18.1406C151.431 18.1406 153.828 15.3574 154.214 10.916C155.966 10.6289 157.548 9.9082 158.462 8.92969L158.246 8.2793C157.214 9 155.656 9.7207 154.548 9.7207C154.478 9.7207 154.384 9.7207 154.285 9.66797C154.285 7.14844 153.277 5.83008 151.214 5.83008ZM149.439 15.9844C148.525 15.9844 148.214 15.6211 148.214 14.0391C148.214 11.6895 149.703 7.29492 151.408 7.29492C152.029 7.29492 152.269 7.68164 152.316 8.68945C151.888 8.87695 151.572 9.31055 151.572 9.98438C151.572 10.4648 151.718 10.8691 152.222 10.9922C151.835 13.8223 150.617 15.9844 149.439 15.9844ZM168.348 9.35742C168.348 10.8926 167.27 13.8457 167.27 15.4805C167.27 16.8457 168.014 18.1934 170.1 18.1934C171.371 18.1934 173.223 17.6895 174.565 13.752L173.557 13.752C173.03 15 172.596 15.8613 171.541 15.8613C170.821 15.8613 170.58 15.457 170.58 14.8535C170.58 13.5117 171.735 10.6055 171.735 8.66016C171.735 6.74414 170.604 5.95312 169.069 5.95312C168.184 5.95312 166.889 6.2168 165.735 7.99219C165.471 6.50391 164.534 5.92969 163.262 5.92969C162.424 5.92969 161.34 6.14062 160.332 7.29492L160.596 6.04688L157.145 6.04688L154.596 18.0469L158.053 18.0469L159.688 10.3418C160.045 9.14062 160.696 8.10938 161.627 8.10938C162.16 8.10938 162.348 8.63672 162.348 9.16406C162.348 9.38086 162.325 9.57422 162.278 9.76758L160.526 18.0469L163.983 18.0469L165.612 10.3418C165.975 9.14062 166.619 8.13281 167.487 8.13281C168.061 8.13281 168.348 8.56641 168.348 9.35742ZM176.798 14.1562C176.798 13.8691 176.822 13.5352 176.845 13.2012C179.728 13.0312 182.365 10.8926 182.365 8.13281C182.365 6.9375 181.861 5.83008 179.728 5.83008C174.806 5.83008 173.248 11.6133 173.248 14.373C173.248 17.0859 174.736 18.1934 176.992 18.1934C180.179 18.1934 182.224 15.9609 183.589 13.752L182.775 13.752C181.574 15.1172 180.419 16.1777 178.527 16.1777C177.373 16.1777 176.798 15.791 176.798 14.1562ZM180.519 8.08594C180.519 10.0781 178.884 11.9297 177.039 12.0469C177.519 9.66797 178.697 7.10156 179.915 7.10156C180.373 7.10156 180.519 7.48828 180.519 8.08594ZM184.596 5.15625L180.589 24.0469L184.215 23.1855L185.464 17.3262C185.727 17.7832 186.301 18.1934 187.503 18.1934C192.161 18.1934 193.409 12.9609 193.409 9.7207C193.409 6.86133 192.108 5.92969 190.479 5.92969C189.278 5.92969 188.364 6.35742 187.673 6.96094L188.053 5.15625L184.596 5.15625ZM186.758 16.1016C186.208 16.1016 185.944 15.8145 185.844 15.5508L187.262 8.83008C187.719 8.0625 188.387 7.65234 188.921 7.65234C189.348 7.65234 190.116 7.79883 190.116 9.64453C190.116 11.9004 189.278 16.1016 186.758 16.1016ZM202.069 6.04688L201.805 7.31836L201.805 7.14844C201.805 6.45703 201.231 5.92969 199.86 5.92969C195.688 5.92969 193.696 11.0859 193.696 14.3262C193.696 17.1855 195.254 18.1934 196.889 18.1934C198.588 18.1934 199.719 17.0859 200.463 15.9844C200.604 17.4258 201.471 18.1934 202.813 18.1934C204.108 18.1934 206.27 17.6602 207.641 13.752L206.627 13.752C206.27 14.9531 205.619 16.0078 204.688 16.0078C204.014 16.0078 203.703 15.6445 203.703 14.9766C203.703 14.7598 203.727 14.5195 203.797 14.209L205.526 6.04688L202.069 6.04688ZM200.604 7.41211C201.371 7.41211 201.588 8.03906 201.588 8.32617L200.44 13.752C200.153 15.1406 199.145 15.8613 198.447 15.8613C198.014 15.8613 197.246 15.8379 197.246 13.9922C197.246 11.7363 198.565 7.41211 200.604 7.41211ZM214.693 6.04688L214.429 7.29492L214.429 7.14844C214.429 6.45703 213.855 5.92969 212.484 5.92969C208.312 5.92969 206.32 11.0859 206.32 14.3262C206.32 17.1855 207.878 18.1934 209.513 18.1934C210.761 18.1934 211.693 17.6133 212.39 16.8691L212.103 18.1406C210.304 18.6973 208.189 19.7051 208.189 21.7207C208.189 23.2793 209.413 24.0469 210.878 24.0469C212.46 24.0469 214.476 23.3965 215.196 19.9688L215.56 18.2402C217.048 17.8301 218.87 16.916 219.808 13.752L218.8 13.752C218.126 15.8379 217.236 16.6523 215.777 17.1855L218.15 6.04688L214.693 6.04688ZM213.228 7.41211C213.995 7.41211 214.189 8.03906 214.212 8.30273L212.987 13.9922C212.654 15.2168 211.716 15.8613 211.071 15.8613C210.638 15.8613 209.87 15.8379 209.87 13.9922C209.87 11.7363 211.189 7.41211 213.228 7.41211ZM209.513 21.3809C209.513 20.4258 210.638 19.7988 211.862 19.3418L211.716 20.0391C211.405 21.457 210.831 22.1777 210.327 22.1777C209.8 22.1777 209.513 21.7207 209.513 21.3809ZM222.015 13.916C222.015 13.7051 222.038 13.4414 222.062 13.2012C224.945 13.0312 227.581 10.916 227.581 8.13281C227.581 6.9375 227.077 5.83008 224.945 5.83008C220.023 5.83008 218.464 11.6133 218.464 14.373C218.464 17.0859 219.952 18.1934 222.185 18.1934C224.101 18.1934 225.829 17.373 226.333 14.6367C225.566 15.3105 224.411 15.9082 223.503 15.9082C222.659 15.9082 222.015 15.4336 222.015 13.916ZM225.736 8.08594C225.736 10.1016 224.101 11.9531 222.232 12.0469C222.736 9.76758 223.937 7.10156 225.132 7.10156C225.589 7.10156 225.736 7.48828 225.736 8.08594Z" fill="#000000" fill-opacity="0.990000" fill-rule="evenodd"/>
		<path id="Foodieland." d="M228.326 16.248C228.326 17.3027 229.164 18.1406 230.225 18.1406C231.279 18.1406 232.141 17.3027 232.141 16.248C232.141 15.1934 231.279 14.3262 230.225 14.3262C229.164 14.3262 228.326 15.1934 228.326 16.248Z" fill="#FF7426" fill-opacity="1.000000" fill-rule="evenodd"/>
	</g>
</svg>
